# xmcd
# 
# Track frame offsets:
#     150
#     21225
#     47075
#     74975
#     91227
#     105495
#     120250
#     141062
#     157825
#     176620
#     199112
#     215632
#     237525
#     249540
#     268845
#     282437
# 
# Disc length: 3944
# 
# Revision: 1
# Processed by: cddbd v1.5.2PL0 Copyright (c) Steve Scherf et al.
# Submitted via: BonkEnc v1.0
# 
DISCID=ee0f6610
DTITLE=宗次郎 - オカリナエチュードコレクション 〜リクエスト〜 DISC-2
DYEAR=2003
DGENRE=Euro-House
TTITLE0=アヴェ・マリア（シューベルト）
TTITLE1=リュートのための古い舞曲とアリアより 「イタリアーナ」「シチリアーナ」
TTITLE2=主よ人の望みよ喜びよ（カンタータ第147番より）
TTITLE3=G線上のアリア
TTITLE4=ブラームスの子守歌
TTITLE5=ムーン・リバー
TTITLE6=マイ・ハート・ウィル・ゴー・オン
TTITLE7=メイ・イット・ビー
TTITLE8=メロディ・フェア
TTITLE9=アメイジング・グレイス
TTITLE10=ザ・ローズ
TTITLE11=星に願いを
TTITLE12=きよしこの夜
TTITLE13=いつくしみ深き　讃美歌312番
TTITLE14=朝の祈り
TTITLE15=アヴェ・マリア（バッハ/グノー）
EXTD=YEAR: 2003
EXTT0=
EXTT1=
EXTT2=
EXTT3=
EXTT4=
EXTT5=
EXTT6=
EXTT7=
EXTT8=
EXTT9=
EXTT10=
EXTT11=
EXTT12=
EXTT13=
EXTT14=
EXTT15=
PLAYORDER=
